<?xml version="1.0" standalone="no"?>
<!DOCTYPE svg PUBLIC "-//W3C//DTD SVG 20010904//EN"
 "http://www.w3.org/TR/2001/REC-SVG-20010904/DTD/svg10.dtd">
<svg version="1.0" xmlns="http://www.w3.org/2000/svg"
 width="246.000000pt" height="240.000000pt" viewBox="0 0 246.000000 240.000000"
 preserveAspectRatio="xMidYMid meet">

<g transform="translate(0.000000,240.000000) scale(0.100000,-0.100000)"
fill="#000000" stroke="none">
<path d="M440 2181 c-69 -22 -121 -65 -156 -131 -18 -33 -19 -67 -19 -580 0
-539 0 -545 22 -585 25 -47 64 -85 113 -111 29 -15 63 -19 187 -22 l151 -4 4
-151 c3 -124 7 -158 22 -187 26 -49 64 -88 111 -113 40 -22 46 -22 585 -22
539 0 545 0 585 22 47 25 85 64 111 113 18 33 19 67 19 580 0 539 0 545 -22
585 -25 47 -64 85 -113 111 -29 15 -63 19 -187 22 l-151 4 -4 151 c-3 124 -7
158 -22 187 -26 49 -64 88 -111 113 -39 22 -48 22 -570 24 -291 1 -541 -2
-555 -6z m1106 -154 l35 -37 -3 -525 -3 -525 -33 -32 -32 -33 -530 0 -530 0
-32 33 -33 32 -3 524 -3 524 27 32 c15 17 37 36 48 40 12 5 254 8 539 7 l519
-2 34 -38z"/>
</g>
</svg>
