<?xml version="1.0" standalone="no"?>
<!DOCTYPE svg PUBLIC "-//W3C//DTD SVG 20010904//EN"
 "http://www.w3.org/TR/2001/REC-SVG-20010904/DTD/svg10.dtd">
<svg version="1.0" xmlns="http://www.w3.org/2000/svg"
 width="656.000000pt" height="656.000000pt" viewBox="0 0 656.000000 656.000000"
 preserveAspectRatio="xMidYMid meet">
<metadata>
Created by potrace 1.14, written by Peter Selinger 2001-2017
</metadata>
<g transform="translate(0.000000,656.000000) scale(0.100000,-0.100000)"
fill="#000000" stroke="none">
<path d="M2197 5913 c-1 -1 -209 -3 -462 -4 -253 -2 -489 -7 -524 -11 -44 -5
-90 -20 -145 -48 -92 -45 -139 -81 -205 -154 -47 -54 -106 -145 -119 -186 -30
-93 -34 -287 -34 -1550 0 -1016 4 -1300 17 -1390 9 -59 10 -64 27 -102 70
-158 269 -332 405 -354 19 -3 44 -7 54 -9 55 -11 184 -16 671 -28 42 -1 79 -5
82 -7 3 -3 8 -114 11 -245 10 -453 19 -563 51 -624 8 -14 14 -32 14 -38 0 -7
5 -13 10 -13 6 0 10 -5 10 -10 0 -19 76 -114 128 -160 131 -117 192 -145 343
-156 98 -7 2588 -14 2602 -7 4 2 44 6 90 8 101 4 175 14 183 26 3 5 9 7 14 4
4 -3 13 2 20 10 7 8 17 15 22 15 17 0 131 85 163 121 57 64 94 116 120 167 24
48 30 71 41 162 4 36 17 914 14 985 -1 22 -1 46 -1 53 1 6 1 18 2 25 0 6 0 40
-1 75 -2 34 0 65 3 68 3 3 1 19 -3 35 -5 18 -5 29 1 29 6 0 5 8 -1 20 -6 11
-7 20 -3 20 4 0 7 21 6 47 -5 124 -5 164 0 169 3 3 1 19 -3 35 -5 18 -5 29 1
29 6 0 5 8 -1 20 -6 11 -7 20 -2 20 5 0 6 21 2 48 -3 26 -3 59 0 72 3 14 3 42
-1 63 -3 20 -3 39 1 42 4 3 6 19 3 37 -9 73 -9 98 -1 98 5 0 7 4 4 9 -4 5 -8
175 -11 378 -6 477 -6 485 -70 599 -38 68 -168 207 -204 219 -12 3 -21 10 -21
14 0 5 -30 22 -67 38 -89 40 -168 49 -493 58 -230 7 -383 12 -395 14 -6 1 -11
64 -12 164 -4 288 -16 556 -28 622 -21 121 -126 272 -250 360 -64 46 -145 90
-145 79 0 -4 -6 -2 -12 3 -7 5 -29 10 -48 12 -19 1 -48 4 -65 7 -40 6 -1783
23 -1788 17z m1211 -324 l623 -3 62 -69 c34 -38 76 -82 93 -98 l30 -29 -3
-412 c-1 -227 -4 -813 -7 -1301 -2 -489 -6 -891 -9 -893 -3 -3 -1 -19 3 -35 5
-18 5 -29 -1 -29 -6 0 -6 -7 -1 -17 5 -10 7 -31 5 -48 -2 -16 -4 -40 -6 -52
-1 -12 -40 -59 -86 -105 l-84 -83 -1414 -1 -1414 0 -86 88 -87 88 -2 527 c-2
291 -5 918 -8 1395 l-5 867 27 33 c63 77 120 131 156 150 36 18 65 20 415 25
207 3 377 6 378 7 1 0 181 0 400 -1 219 -1 678 -3 1021 -4z"/>
</g>
</svg>
